<?xml version="1.0" standalone="no"?>
<!DOCTYPE svg PUBLIC "-//W3C//DTD SVG 20010904//EN"
 "http://www.w3.org/TR/2001/REC-SVG-20010904/DTD/svg10.dtd">
<svg version="1.0" xmlns="http://www.w3.org/2000/svg"
 width="600.000000pt" height="600.000000pt" viewBox="0 0 600.000000 600.000000"
 preserveAspectRatio="xMidYMid meet">
<metadata>
Created by potrace 1.14, written by Peter Selinger 2001-2017
</metadata>
<g transform="translate(0.000000,600.000000) scale(0.100000,-0.100000)"
fill="#000000" stroke="none">
<path d="M4170 5557 c-19 -12 -36 -25 -38 -29 -2 -4 -7 -8 -12 -8 -5 0 -203
-118 -442 -261 -238 -144 -450 -271 -470 -283 -21 -11 -142 -83 -270 -160
-128 -76 -253 -150 -278 -164 -25 -13 -49 -28 -55 -32 -9 -7 -61 -38 -220
-130 -16 -9 -82 -48 -145 -85 -63 -37 -129 -76 -146 -85 -17 -10 -64 -38 -105
-63 -41 -24 -114 -68 -164 -97 -49 -29 -97 -60 -105 -69 -43 -47 -42 -26 -42
-933 0 -474 1 -867 3 -873 1 -5 1 -14 0 -19 -4 -23 -2 -96 4 -136 25 -165 132
-304 288 -375 71 -33 98 -38 202 -38 120 -1 184 16 272 75 22 16 427 414 898
885 911 912 904 904 938 1033 25 99 10 262 -30 326 -11 17 -10 23 5 40 10 11
23 33 29 49 7 20 10 269 9 726 -1 574 -3 699 -15 712 -18 23 -68 20 -111 -6z"/>
<path d="M4200 3323 c-8 -3 -17 -9 -20 -13 -3 -3 -30 -21 -62 -38 -43 -25
-248 -225 -855 -830 -729 -729 -804 -801 -863 -830 -81 -39 -135 -53 -208 -54
-148 -3 -265 45 -373 153 -31 31 -62 71 -70 88 -8 17 -19 31 -25 31 -22 0 -45
-73 -45 -140 0 -52 2 -407 2 -465 1 -99 0 -240 -2 -245 -1 -3 0 -9 1 -15 1 -5
2 -137 2 -292 0 -196 4 -289 12 -305 22 -42 61 -28 258 90 100 60 199 119 218
130 19 10 60 34 90 52 57 34 83 49 161 92 83 46 94 53 99 58 3 3 48 30 100 59
52 30 172 100 265 155 94 55 184 108 200 117 17 9 156 92 310 184 154 92 300
179 325 193 25 14 56 33 70 43 22 15 170 103 375 222 83 49 110 74 123 119 7
21 10 279 9 724 -2 569 -4 694 -16 707 -13 17 -51 21 -81 10z"/>
</g>
</svg>
